<svg xmlns="http://www.w3.org/2000/svg" viewBox="0 0 24 24" fill="currentColor">
  <path d="M12.785 16.241s.287-.029.435-.18c.136-.137.132-.392.132-.392s-.02-1.23.577-1.41c.588-.18 1.345.895 2.145 1.29.605.298 1.065.231 1.065.231l2.145-.03s1.12-.07.59-.93c-.043-.07-.308-.65-1.58-1.84-1.336-1.246-1.156-.523.453-1.603 1.01-.85 1.41-1.37 1.28-1.59-.12-.21-.86-.16-.86-.16l-2.21.014s-.164-.012-.285.096c-.11.096-.18.3-.18.3s-.323.87-.75 1.61c-.9 1.62-1.26 1.71-1.41 1.61-.34-.2-.255-.81-.255-1.24 0-1.35.205-1.91-.4-2.06-.2-.05-.347-.08-.86-.09-.66-.01-1.22.003-1.54.006-.11.001-.19.008-.235.016-.13.024-.22.08-.22.08s-.04.07-.03.21c.01.12.05.16.05.16s.18.05.49.16c.36.12.82.38 1.14.62.47.38.82.84.95 1.35.1.4.07 1.28.07 1.28s.005.78-.18.9c-.18.12-.43-.13-.97-.93-.27-.32-.47-.67-.94-1.42-.38-.6-.07-.93.28-1.5.19-.3.33-.49.33-.49s.03-.06.02-.11c0-.05-.03-.08-.03-.08l-.85-.01s-.63.01-.85.15c-.2.12-.02.37-.02.37s1.65 3.45 3.52 5.19c1.71 1.59 3.67 1.49 3.67 1.49h.87z"/>
</svg>

  <path d="M12.785 16.241s.287-.029.435-.18c.136-.137.132-.392.132-.392s-.02-1.23.577-1.41c.588-.18 1.345.895 2.145 1.29.605.298 1.065.231 1.065.231l2.145-.03s1.12-.07.59-.93c-.043-.07-.308-.65-1.58-1.84-1.336-1.246-1.156-.523.453-1.603 1.01-.85 1.41-1.37 1.28-1.59-.12-.21-.86-.16-.86-.16l-2.21.014s-.164-.012-.285.096c-.11.096-.18.3-.18.3s-.323.87-.75 1.61c-.9 1.62-1.26 1.71-1.41 1.61-.34-.2-.255-.81-.255-1.24 0-1.35.205-1.91-.4-2.06-.2-.05-.347-.08-.86-.09-.66-.01-1.22.003-1.54.006-.11.001-.19.008-.235.016-.13.024-.22.08-.22.08s-.04.07-.03.21c.01.12.05.16.05.16s.18.05.49.16c.36.12.82.38 1.14.62.47.38.82.84.95 1.35.1.4.07 1.28.07 1.28s.005.78-.18.9c-.18.12-.43-.13-.97-.93-.27-.32-.47-.67-.94-1.42-.38-.6-.07-.93.28-1.5.19-.3.33-.49.33-.49s.03-.06.02-.11c0-.05-.03-.08-.03-.08l-.85-.01s-.63.01-.85.15c-.2.12-.02.37-.02.37s1.65 3.45 3.52 5.19c1.71 1.59 3.67 1.49 3.67 1.49h.87z"/>
</svg>








